ffmpeg started on 2025-06-07 at 15:15:35
Report written to "D:\Convert\FFMetrics\reports\psnr_report-6.txt"
Log level: 32
Command line:
ffmpeg -hide_banner -nostdin -i "G:\\\xc0\xed\xe8\xec\xe5\\\xce\xed\xe3\xee\xe8\xed\xe3\xe8\\!_36_\xce\xf1\xe5\xed\xfc_2024\\DreamCast\\\xd1\xee\xe1\xeb\xe0\xe7\xed 2,5-\xec\xe5\xf0\xed\xee\xe3\xee \xe8\xe7\xec\xe5\xf0\xe5\xed\xe8\xff\\[DC] 2-5 Jigen no Ririsa - 10_Telegram_HEVC.mkv" -i "G:\\\xc0\xed\xe8\xec\xe5\\\xce\xed\xe3\xee\xe8\xed\xe3\xe8\\!_36_\xce\xf1\xe5\xed\xfc_2024\\DreamCast\\\xd1\xee\xe1\xeb\xe0\xe7\xed 2,5-\xec\xe5\xf0\xed\xee\xe3\xee \xe8\xe7\xec\xe5\xf0\xe5\xed\xe8\xff\\[DC] 2-5 Jigen no Ririsa - 10_Telegram.mp4" -lavfi "[0:v]settb=AVTB,setpts=PTS-STARTPTS,format=pix_fmts=yuv420p10,fps=24/1,scale=1920:1080:flags=bicubic[main];[1:v]settb=AVTB,setpts=PTS-STARTPTS,format=pix_fmts=yuv420p,fps=24/1,scale=1920:1080:flags=bicubic[ref];[main][ref]psnr=eof_action=endall:stats_file='D\\:/Convert/FFMetrics/logs/psnr_logfile-6.txt'" -f null -
Input #0, matroska,webm, from 'G:\Аниме\Онгоинги\!_36_Осень_2024\DreamCast\Соблазн 2,5-мерного измерения\[DC] 2-5 Jigen no Ririsa - 10_Telegram_HEVC.mkv':
  Metadata:
    COMPATIBLE_BRANDS: isomiso2avc1mp41
    MAJOR_BRAND     : isom
    MINOR_VERSION   : 512
    ENCODER         : Lavf61.7.100
  Duration: 00:24:09.13, start: -0.021000, bitrate: 1548 kb/s
  Stream #0:0: Video: hevc (Main 10), yuv420p10le(tv, bt709, progressive), 1920x1080 [SAR 1:1 DAR 16:9], 24 fps, 24 tbr, 1k tbn (default)
      Metadata:
        HANDLER_NAME    : VideoHandler
        VENDOR_ID       : [0][0][0][0]
        ENCODER         : Lavc61.19.100 libx265
        BPS             : 1351418
        DURATION        : 00:24:09.083666666
        NUMBER_OF_FRAMES: 34778
        NUMBER_OF_BYTES : 244789720
        _STATISTICS_WRITING_APP: mkvpropedit v66.0.0 ('Josie') 64-bit
        _STATISTICS_WRITING_DATE_UTC: 2025-06-04 11:14:44
        _STATISTICS_TAGS: BPS DURATION NUMBER_OF_FRAMES NUMBER_OF_BYTES
  Stream #0:1: Audio: aac (LC), 48000 Hz, stereo, fltp (default)
      Metadata:
        HANDLER_NAME    : SoundHandler
        VENDOR_ID       : [0][0][0][0]
        ENCODER         : Lavc61.19.100 aac
        BPS             : 193323
        DURATION        : 00:24:09.130000000
        NUMBER_OF_FRAMES: 67929
        NUMBER_OF_BYTES : 35018772
        _STATISTICS_WRITING_APP: mkvpropedit v66.0.0 ('Josie') 64-bit
        _STATISTICS_WRITING_DATE_UTC: 2025-06-04 11:14:44
        _STATISTICS_TAGS: BPS DURATION NUMBER_OF_FRAMES NUMBER_OF_BYTES
Input #1, mov,mp4,m4a,3gp,3g2,mj2, from 'G:\Аниме\Онгоинги\!_36_Осень_2024\DreamCast\Соблазн 2,5-мерного измерения\[DC] 2-5 Jigen no Ririsa - 10_Telegram.mp4':
  Metadata:
    major_brand     : isom
    minor_version   : 512
    compatible_brands: isomiso2avc1mp41
    encoder         : Lavf60.12.100
  Duration: 00:24:09.08, start: 0.000000, bitrate: 3929 kb/s
  Stream #1:0[0x1](und): Video: h264 (High) (avc1 / 0x31637661), yuv420p(tv, bt709, progressive), 1920x1080 [SAR 1:1 DAR 16:9], 3781 kb/s, 24 fps, 24 tbr, 12288 tbn (default)
      Metadata:
        handler_name    : VideoHandler
        vendor_id       : [0][0][0][0]
        encoder         : Lavc60.26.100 h264_qsv
  Stream #1:1[0x2](und): Audio: aac (HE-AACv2) (mp4a / 0x6134706D), 48000 Hz, stereo, fltp, 144 kb/s (default)
      Metadata:
        handler_name    : SoundHandler
        vendor_id       : [0][0][0][0]
Stream mapping:
  Stream #0:0 (hevc) -> settb:default
  Stream #1:0 (h264) -> settb:default
  psnr:default -> Stream #0:0 (wrapped_avframe)
  Stream #0:1 -> #0:1 (aac (native) -> pcm_s16le (native))
Output #0, null, to 'pipe:':
  Metadata:
    COMPATIBLE_BRANDS: isomiso2avc1mp41
    MAJOR_BRAND     : isom
    MINOR_VERSION   : 512
    encoder         : Lavf61.7.100
  Stream #0:0: Video: wrapped_avframe, yuv420p10le(tv, bt709, progressive), 1920x1080 [SAR 1:1 DAR 16:9], q=2-31, 200 kb/s, 24 fps, 24 tbn
      Metadata:
        encoder         : Lavc61.19.100 wrapped_avframe
  Stream #0:1: Audio: pcm_s16le, 48000 Hz, stereo, s16, 1536 kb/s (default)
      Metadata:
        HANDLER_NAME    : SoundHandler
        VENDOR_ID       : [0][0][0][0]
        _STATISTICS_TAGS: BPS DURATION NUMBER_OF_FRAMES NUMBER_OF_BYTES
        BPS             : 193323
        DURATION        : 00:24:09.130000000
        NUMBER_OF_FRAMES: 67929
        NUMBER_OF_BYTES : 35018772
        _STATISTICS_WRITING_APP: mkvpropedit v66.0.0 ('Josie') 64-bit
        _STATISTICS_WRITING_DATE_UTC: 2025-06-04 11:14:44
        encoder         : Lavc61.19.100 pcm_s16le
frame=  158 fps=0.0 q=-0.0 size=N/A time=00:00:06.58 bitrate=N/A speed=12.9x    frame=  368 fps=359 q=-0.0 size=N/A time=00:00:15.37 bitrate=N/A speed=  15x    frame=  548 fps=356 q=-0.0 size=N/A time=00:00:22.83 bitrate=N/A speed=14.8x    frame=  774 fps=376 q=-0.0 size=N/A time=00:00:32.25 bitrate=N/A speed=15.7x    frame=  973 fps=376 q=-0.0 size=N/A time=00:00:40.54 bitrate=N/A speed=15.7x    frame= 1181 fps=382 q=-0.0 size=N/A time=00:00:49.20 bitrate=N/A speed=15.9x    frame= 1397 fps=387 q=-0.0 size=N/A time=00:00:58.20 bitrate=N/A speed=16.1x    frame= 1620 fps=393 q=-0.0 size=N/A time=00:01:07.50 bitrate=N/A speed=16.4x    frame= 1793 fps=387 q=-0.0 size=N/A time=00:01:14.70 bitrate=N/A speed=16.1x    frame= 2016 fps=391 q=-0.0 size=N/A time=00:01:24.00 bitrate=N/A speed=16.3x    frame= 2216 fps=391 q=-0.0 size=N/A time=00:01:32.33 bitrate=N/A speed=16.3x    frame= 2406 fps=388 q=-0.0 size=N/A time=00:01:40.25 bitrate=N/A speed=16.2x    frame= 2605 fps=389 q=-0.0 size=N/A time=00:01:48.54 bitrate=N/A speed=16.2x    frame= 2803 fps=389 q=-0.0 size=N/A time=00:01:56.79 bitrate=N/A speed=16.2x    frame= 3003 fps=388 q=-0.0 size=N/A time=00:02:05.12 bitrate=N/A speed=16.2x    frame= 3224 fps=391 q=-0.0 size=N/A time=00:02:14.33 bitrate=N/A speed=16.3x    frame= 3474 fps=397 q=-0.0 size=N/A time=00:02:24.75 bitrate=N/A speed=16.5x    frame= 3706 fps=399 q=-0.0 size=N/A time=00:02:34.41 bitrate=N/A speed=16.6x    frame= 3925 fps=401 q=-0.0 size=N/A time=00:02:43.54 bitrate=N/A speed=16.7x    frame= 4158 fps=403 q=-0.0 size=N/A time=00:02:53.25 bitrate=N/A speed=16.8x    frame= 4407 fps=407 q=-0.0 size=N/A time=00:03:03.62 bitrate=N/A speed=  17x    frame= 4600 fps=405 q=-0.0 size=N/A time=00:03:11.66 bitrate=N/A speed=16.9x    frame= 4749 fps=401 q=-0.0 size=N/A time=00:03:17.87 bitrate=N/A speed=16.7x    frame= 4885 fps=395 q=-0.0 size=N/A time=00:03:23.54 bitrate=N/A speed=16.4x    frame= 5106 fps=396 q=-0.0 size=N/A time=00:03:32.75 bitrate=N/A speed=16.5x    frame= 5292 fps=395 q=-0.0 size=N/A time=00:03:40.50 bitrate=N/A speed=16.5x    frame= 5527 fps=397 q=-0.0 size=N/A time=00:03:50.29 bitrate=N/A speed=16.5x    frame= 5632 fps=390 q=-0.0 size=N/A time=00:03:54.66 bitrate=N/A speed=16.3x    frame= 5818 fps=389 q=-0.0 size=N/A time=00:04:02.41 bitrate=N/A speed=16.2x    frame= 6026 fps=389 q=-0.0 size=N/A time=00:04:11.08 bitrate=N/A speed=16.2x    frame= 6250 fps=391 q=-0.0 size=N/A time=00:04:20.41 bitrate=N/A speed=16.3x    frame= 6450 fps=391 q=-0.0 size=N/A time=00:04:28.75 bitrate=N/A speed=16.3x    frame= 6661 fps=391 q=-0.0 size=N/A time=00:04:37.54 bitrate=N/A speed=16.3x    frame= 6925 fps=395 q=-0.0 size=N/A time=00:04:48.54 bitrate=N/A speed=16.5x    frame= 7141 fps=396 q=-0.0 size=N/A time=00:04:57.54 bitrate=N/A speed=16.5x    frame= 7366 fps=397 q=-0.0 size=N/A time=00:05:06.91 bitrate=N/A speed=16.5x    frame= 7607 fps=399 q=-0.0 size=N/A time=00:05:16.95 bitrate=N/A speed=16.6x    frame= 7836 fps=400 q=-0.0 size=N/A time=00:05:26.50 bitrate=N/A speed=16.7x    frame= 8093 fps=402 q=-0.0 size=N/A time=00:05:37.20 bitrate=N/A speed=16.8x    frame= 8363 fps=406 q=-0.0 size=N/A time=00:05:48.45 bitrate=N/A speed=16.9x    frame= 8615 fps=408 q=-0.0 size=N/A time=00:05:58.95 bitrate=N/A speed=  17x    frame= 8855 fps=409 q=-0.0 size=N/A time=00:06:08.95 bitrate=N/A speed=  17x    frame= 9050 fps=408 q=-0.0 size=N/A time=00:06:17.08 bitrate=N/A speed=  17x    frame= 9274 fps=409 q=-0.0 size=N/A time=00:06:26.41 bitrate=N/A speed=  17x    frame= 9536 fps=411 q=-0.0 size=N/A time=00:06:37.33 bitrate=N/A speed=17.1x    frame= 9771 fps=412 q=-0.0 size=N/A time=00:06:47.12 bitrate=N/A speed=17.2x    frame= 9988 fps=412 q=-0.0 size=N/A time=00:06:56.16 bitrate=N/A speed=17.2x    frame=10238 fps=414 q=-0.0 size=N/A time=00:07:06.58 bitrate=N/A speed=17.2x    frame=10457 fps=414 q=-0.0 size=N/A time=00:07:15.70 bitrate=N/A speed=17.2x    frame=10697 fps=415 q=-0.0 size=N/A time=00:07:25.70 bitrate=N/A speed=17.3x    frame=10917 fps=415 q=-0.0 size=N/A time=00:07:34.87 bitrate=N/A speed=17.3x    frame=11141 fps=415 q=-0.0 size=N/A time=00:07:44.20 bitrate=N/A speed=17.3x    frame=11327 fps=415 q=-0.0 size=N/A time=00:07:52.00 bitrate=N/A speed=17.3x    frame=11595 fps=416 q=-0.0 size=N/A time=00:08:03.12 bitrate=N/A speed=17.3x    frame=11838 fps=417 q=-0.0 size=N/A time=00:08:13.25 bitrate=N/A speed=17.4x    frame=12050 fps=417 q=-0.0 size=N/A time=00:08:22.08 bitrate=N/A speed=17.4x    frame=12265 fps=417 q=-0.0 size=N/A time=00:08:31.04 bitrate=N/A speed=17.4x    frame=12464 fps=417 q=-0.0 size=N/A time=00:08:39.33 bitrate=N/A speed=17.4x    frame=12674 fps=417 q=-0.0 size=N/A time=00:08:48.08 bitrate=N/A speed=17.4x    frame=12914 fps=417 q=-0.0 size=N/A time=00:08:58.08 bitrate=N/A speed=17.4x    frame=13140 fps=418 q=-0.0 size=N/A time=00:09:07.50 bitrate=N/A speed=17.4x    frame=13373 fps=418 q=-0.0 size=N/A time=00:09:17.20 bitrate=N/A speed=17.4x    frame=13620 fps=419 q=-0.0 size=N/A time=00:09:27.50 bitrate=N/A speed=17.5x    frame=13881 fps=421 q=-0.0 size=N/A time=00:09:38.37 bitrate=N/A speed=17.5x    frame=14144 fps=422 q=-0.0 size=N/A time=00:09:49.33 bitrate=N/A speed=17.6x    frame=14397 fps=423 q=-0.0 size=N/A time=00:09:59.87 bitrate=N/A speed=17.6x    frame=14668 fps=425 q=-0.0 size=N/A time=00:10:11.16 bitrate=N/A speed=17.7x    frame=14891 fps=425 q=-0.0 size=N/A time=00:10:20.45 bitrate=N/A speed=17.7x    frame=15084 fps=424 q=-0.0 size=N/A time=00:10:28.50 bitrate=N/A speed=17.7x    frame=15305 fps=424 q=-0.0 size=N/A time=00:10:37.70 bitrate=N/A speed=17.7x    frame=15465 fps=422 q=-0.0 size=N/A time=00:10:44.37 bitrate=N/A speed=17.6x    frame=15698 fps=423 q=-0.0 size=N/A time=00:10:54.08 bitrate=N/A speed=17.6x    frame=15908 fps=422 q=-0.0 size=N/A time=00:11:02.83 bitrate=N/A speed=17.6x    frame=16150 fps=423 q=-0.0 size=N/A time=00:11:12.91 bitrate=N/A speed=17.6x    frame=16375 fps=423 q=-0.0 size=N/A time=00:11:22.29 bitrate=N/A speed=17.6x    frame=16630 fps=424 q=-0.0 size=N/A time=00:11:32.91 bitrate=N/A speed=17.7x    frame=16880 fps=425 q=-0.0 size=N/A time=00:11:43.33 bitrate=N/A speed=17.7x    frame=17113 fps=425 q=-0.0 size=N/A time=00:11:53.04 bitrate=N/A speed=17.7x    frame=17353 fps=426 q=-0.0 size=N/A time=00:12:03.04 bitrate=N/A speed=17.7x    frame=17598 fps=426 q=-0.0 size=N/A time=00:12:13.25 bitrate=N/A speed=17.8x    frame=17816 fps=426 q=-0.0 size=N/A time=00:12:22.33 bitrate=N/A speed=17.8x    frame=18047 fps=427 q=-0.0 size=N/A time=00:12:31.95 bitrate=N/A speed=17.8x    frame=18274 fps=427 q=-0.0 size=N/A time=00:12:41.41 bitrate=N/A speed=17.8x    frame=18484 fps=426 q=-0.0 size=N/A time=00:12:50.16 bitrate=N/A speed=17.8x    frame=18695 fps=426 q=-0.0 size=N/A time=00:12:58.95 bitrate=N/A speed=17.8x    frame=18881 fps=425 q=-0.0 size=N/A time=00:13:06.70 bitrate=N/A speed=17.7x    frame=19092 fps=425 q=-0.0 size=N/A time=00:13:15.50 bitrate=N/A speed=17.7x    frame=19258 fps=424 q=-0.0 size=N/A time=00:13:22.41 bitrate=N/A speed=17.7x    frame=19496 fps=425 q=-0.0 size=N/A time=00:13:32.33 bitrate=N/A speed=17.7x    frame=19744 fps=425 q=-0.0 size=N/A time=00:13:42.66 bitrate=N/A speed=17.7x    frame=19971 fps=425 q=-0.0 size=N/A time=00:13:52.12 bitrate=N/A speed=17.7x    frame=20187 fps=425 q=-0.0 size=N/A time=00:14:01.12 bitrate=N/A speed=17.7x    frame=20401 fps=425 q=-0.0 size=N/A time=00:14:10.04 bitrate=N/A speed=17.7x    frame=20643 fps=426 q=-0.0 size=N/A time=00:14:20.12 bitrate=N/A speed=17.7x    frame=20779 fps=424 q=-0.0 size=N/A time=00:14:25.79 bitrate=N/A speed=17.7x    frame=21010 fps=424 q=-0.0 size=N/A time=00:14:35.41 bitrate=N/A speed=17.7x    frame=21271 fps=425 q=-0.0 size=N/A time=00:14:46.29 bitrate=N/A speed=17.7x    frame=21495 fps=425 q=-0.0 size=N/A time=00:14:55.62 bitrate=N/A speed=17.7x    frame=21712 fps=425 q=-0.0 size=N/A time=00:15:04.66 bitrate=N/A speed=17.7x    frame=21959 fps=426 q=-0.0 size=N/A time=00:15:14.95 bitrate=N/A speed=17.7x    frame=22185 fps=426 q=-0.0 size=N/A time=00:15:24.37 bitrate=N/A speed=17.7x    frame=22439 fps=426 q=-0.0 size=N/A time=00:15:34.95 bitrate=N/A speed=17.8x    frame=22675 fps=427 q=-0.0 size=N/A time=00:15:44.79 bitrate=N/A speed=17.8x    frame=22940 fps=428 q=-0.0 size=N/A time=00:15:55.83 bitrate=N/A speed=17.8x    frame=23172 fps=428 q=-0.0 size=N/A time=00:16:05.50 bitrate=N/A speed=17.8x    frame=23417 fps=428 q=-0.0 size=N/A time=00:16:15.70 bitrate=N/A speed=17.8x    frame=23646 fps=428 q=-0.0 size=N/A time=00:16:25.25 bitrate=N/A speed=17.8x    frame=23878 fps=429 q=-0.0 size=N/A time=00:16:34.91 bitrate=N/A speed=17.9x    frame=24083 fps=428 q=-0.0 size=N/A time=00:16:43.45 bitrate=N/A speed=17.8x    frame=24280 fps=428 q=-0.0 size=N/A time=00:16:51.66 bitrate=N/A speed=17.8x    frame=24502 fps=428 q=-0.0 size=N/A time=00:17:00.91 bitrate=N/A speed=17.8x    frame=24741 fps=428 q=-0.0 size=N/A time=00:17:10.87 bitrate=N/A speed=17.8x    frame=24993 fps=429 q=-0.0 size=N/A time=00:17:21.37 bitrate=N/A speed=17.9x    frame=25240 fps=429 q=-0.0 size=N/A time=00:17:31.66 bitrate=N/A speed=17.9x    frame=25478 fps=429 q=-0.0 size=N/A time=00:17:41.58 bitrate=N/A speed=17.9x    frame=25694 fps=429 q=-0.0 size=N/A time=00:17:50.58 bitrate=N/A speed=17.9x    frame=25959 fps=430 q=-0.0 size=N/A time=00:18:01.62 bitrate=N/A speed=17.9x    frame=26198 fps=430 q=-0.0 size=N/A time=00:18:11.58 bitrate=N/A speed=17.9x    frame=26486 fps=431 q=-0.0 size=N/A time=00:18:23.58 bitrate=N/A speed=  18x    frame=26747 fps=432 q=-0.0 size=N/A time=00:18:34.45 bitrate=N/A speed=  18x    frame=26961 fps=432 q=-0.0 size=N/A time=00:18:43.37 bitrate=N/A speed=  18x    frame=27234 fps=433 q=-0.0 size=N/A time=00:18:54.75 bitrate=N/A speed=  18x    frame=27458 fps=433 q=-0.0 size=N/A time=00:19:04.08 bitrate=N/A speed=  18x    frame=27668 fps=433 q=-0.0 size=N/A time=00:19:12.83 bitrate=N/A speed=  18x    frame=27900 fps=433 q=-0.0 size=N/A time=00:19:22.50 bitrate=N/A speed=  18x    frame=28158 fps=433 q=-0.0 size=N/A time=00:19:33.25 bitrate=N/A speed=  18x    frame=28405 fps=434 q=-0.0 size=N/A time=00:19:43.54 bitrate=N/A speed=18.1x    frame=28646 fps=434 q=-0.0 size=N/A time=00:19:53.58 bitrate=N/A speed=18.1x    frame=28835 fps=433 q=-0.0 size=N/A time=00:20:01.45 bitrate=N/A speed=18.1x    frame=29054 fps=433 q=-0.0 size=N/A time=00:20:10.58 bitrate=N/A speed=18.1x    frame=29302 fps=434 q=-0.0 size=N/A time=00:20:20.91 bitrate=N/A speed=18.1x    frame=29527 fps=434 q=-0.0 size=N/A time=00:20:30.29 bitrate=N/A speed=18.1x    frame=29764 fps=434 q=-0.0 size=N/A time=00:20:40.16 bitrate=N/A speed=18.1x    frame=29994 fps=434 q=-0.0 size=N/A time=00:20:49.75 bitrate=N/A speed=18.1x    frame=30240 fps=434 q=-0.0 size=N/A time=00:21:00.00 bitrate=N/A speed=18.1x    frame=30490 fps=435 q=-0.0 size=N/A time=00:21:10.41 bitrate=N/A speed=18.1x    frame=30732 fps=435 q=-0.0 size=N/A time=00:21:20.50 bitrate=N/A speed=18.1x    frame=30942 fps=435 q=-0.0 size=N/A time=00:21:29.25 bitrate=N/A speed=18.1x    frame=31149 fps=434 q=-0.0 size=N/A time=00:21:37.87 bitrate=N/A speed=18.1x    frame=31358 fps=434 q=-0.0 size=N/A time=00:21:46.58 bitrate=N/A speed=18.1x    frame=31582 fps=434 q=-0.0 size=N/A time=00:21:55.91 bitrate=N/A speed=18.1x    frame=31800 fps=434 q=-0.0 size=N/A time=00:22:05.00 bitrate=N/A speed=18.1x    frame=32048 fps=434 q=-0.0 size=N/A time=00:22:15.33 bitrate=N/A speed=18.1x    frame=32294 fps=435 q=-0.0 size=N/A time=00:22:25.58 bitrate=N/A speed=18.1x    frame=32492 fps=434 q=-0.0 size=N/A time=00:22:33.83 bitrate=N/A speed=18.1x    frame=32723 fps=435 q=-0.0 size=N/A time=00:22:43.45 bitrate=N/A speed=18.1x    frame=32928 fps=434 q=-0.0 size=N/A time=00:22:52.00 bitrate=N/A speed=18.1x    frame=33105 fps=434 q=-0.0 size=N/A time=00:22:59.37 bitrate=N/A speed=18.1x    frame=33312 fps=433 q=-0.0 size=N/A time=00:23:08.00 bitrate=N/A speed=18.1x    frame=33512 fps=433 q=-0.0 size=N/A time=00:23:16.33 bitrate=N/A speed=  18x    frame=33703 fps=433 q=-0.0 size=N/A time=00:23:24.29 bitrate=N/A speed=  18x    frame=33944 fps=433 q=-0.0 size=N/A time=00:23:34.33 bitrate=N/A speed=  18x    frame=34149 fps=433 q=-0.0 size=N/A time=00:23:42.87 bitrate=N/A speed=  18x    frame=34328 fps=432 q=-0.0 size=N/A time=00:23:50.33 bitrate=N/A speed=  18x    frame=34509 fps=432 q=-0.0 size=N/A time=00:23:57.87 bitrate=N/A speed=  18x    frame=34741 fps=432 q=-0.0 size=N/A time=00:24:07.54 bitrate=N/A speed=  18x    [Parsed_psnr_10 @ 0000014753421c40] PSNR y:47.660205 u:50.721363 v:50.206731 average:48.408349 min:38.984394 max:inf
[out#0/null @ 000001474b954ac0] video:14944KiB audio:271716KiB subtitle:0KiB other streams:0KiB global headers:0KiB muxing overhead: unknown
frame=34778 fps=432 q=-0.0 Lsize=N/A time=00:24:09.08 bitrate=N/A speed=  18x    
